<svg width="80" height="80" viewBox="0 0 80 80" fill="none" xmlns="http://www.w3.org/2000/svg">
<circle cx="40" cy="40" r="40" fill="#2F88FF"/>
<path fill-rule="evenodd" clip-rule="evenodd" d="M32.5233 31.6765C32.559 31.3829 32.6642 31.1014 32.8305 30.8546C32.9968 30.6077 33.2197 30.4022 33.4814 30.2544C33.7432 30.1066 34.0365 30.0206 34.3381 30.0033C34.6398 29.9859 34.9414 30.0377 35.219 30.1544C36.6224 30.7415 39.7674 32.1369 43.7581 34.391C47.7502 36.6464 50.5582 38.616 51.7779 39.5096C52.8192 40.2739 52.8218 41.7896 51.7792 42.5565C50.5714 43.4449 47.7977 45.3887 43.7581 47.6725C39.7145 49.9564 36.6065 51.335 35.2164 51.9143C34.0191 52.4148 32.6792 51.6557 32.5233 50.3922C32.3409 48.9153 32 45.562 32 41.0331C32 36.5068 32.3396 33.1547 32.5233 31.6765Z" fill="white"/>
</svg>
