<svg width="29" height="30" viewBox="0 0 29 30" fill="none" xmlns="http://www.w3.org/2000/svg">
<path d="M14.5 27.5C21.4036 27.5 27 21.9036 27 15C27 8.09644 21.4036 2.5 14.5 2.5C7.59644 2.5 2 8.09644 2 15C2 21.9036 7.59644 27.5 14.5 27.5Z" fill="#2F88FF" stroke="black" stroke-width="4" stroke-linejoin="round"/>
<path d="M14.5 11.25C15.5356 11.25 16.375 10.4106 16.375 9.375C16.375 8.33944 15.5356 7.5 14.5 7.5C13.4644 7.5 12.625 8.33944 12.625 9.375C12.625 10.4106 13.4644 11.25 14.5 11.25Z" fill="#43CCF8" stroke="white" stroke-width="4" stroke-linejoin="round"/>
<path d="M14.5 22.5C15.5356 22.5 16.375 21.6606 16.375 20.625C16.375 19.5894 15.5356 18.75 14.5 18.75C13.4644 18.75 12.625 19.5894 12.625 20.625C12.625 21.6606 13.4644 22.5 14.5 22.5Z" fill="#43CCF8" stroke="white" stroke-width="4" stroke-linejoin="round"/>
<path d="M8.875 16.875C9.91056 16.875 10.75 16.0356 10.75 15C10.75 13.9644 9.91056 13.125 8.875 13.125C7.83944 13.125 7 13.9644 7 15C7 16.0356 7.83944 16.875 8.875 16.875Z" fill="#43CCF8" stroke="white" stroke-width="4" stroke-linejoin="round"/>
<path d="M20.125 16.875C21.1606 16.875 22 16.0356 22 15C22 13.9644 21.1606 13.125 20.125 13.125C19.0894 13.125 18.25 13.9644 18.25 15C18.25 16.0356 19.0894 16.875 20.125 16.875Z" fill="#43CCF8" stroke="white" stroke-width="4" stroke-linejoin="round"/>
<path d="M14.5 27.5H27" stroke="black" stroke-width="4" stroke-linecap="round"/>
</svg>
