<svg width="30" height="30" viewBox="0 0 30 30" fill="none" xmlns="http://www.w3.org/2000/svg">
<circle cx="15" cy="15" r="13.5" fill="white" stroke="#2F88FF" stroke-width="3"/>
<path fill-rule="evenodd" clip-rule="evenodd" d="M12.198 11.6482C12.2115 11.5347 12.2513 11.4258 12.3142 11.3304C12.3772 11.235 12.4615 11.1555 12.5605 11.0984C12.6596 11.0412 12.7706 11.008 12.8847 11.0013C12.9988 10.9946 13.113 11.0146 13.218 11.0597C13.749 11.2867 14.939 11.8262 16.449 12.6977C17.9595 13.5697 19.022 14.3312 19.4835 14.6767C19.8775 14.9722 19.8785 15.5582 19.484 15.8547C19.027 16.1982 17.9775 16.9497 16.449 17.8327C14.919 18.7157 13.743 19.2487 13.217 19.4727C12.764 19.6662 12.257 19.3727 12.198 18.8842C12.129 18.3132 12 17.0167 12 15.2657C12 13.5157 12.1285 12.2197 12.198 11.6482Z" fill="#2F88FF"/>
</svg>
